<?xml version="1.0" encoding="UTF-8"?>
<svg width="442px" height="153px" viewBox="0 0 442 153" version="1.1" xmlns="http://www.w3.org/2000/svg" xmlns:xlink="http://www.w3.org/1999/xlink">
    <!-- Generator: Sketch 39.1 (31720) - http://www.bohemiancoding.com/sketch -->
    <title>logo</title>
    <desc>Created with Sketch.</desc>
    <defs></defs>
    <g id="Page-1" stroke="none" stroke-width="1" fill="none" fill-rule="evenodd">
        <g id="website-copy-5" transform="translate(-285.000000, -358.000000)">
            <g id="logo" transform="translate(290.000000, 363.000000)">
                <rect id="Rectangle-2" stroke="#272F71" stroke-width="9" fill="#FFFFFF" x="0" y="0" width="432" height="142.531455"></rect>
                <g id="Group" transform="translate(12.792627, 12.132556)" fill="#272F71">
                    <path d="M11.4978477,40.8821929 L23.7610735,40.8821929 L23.7610735,11.3468944 L34.9094606,11.3468944 L34.9094606,1.16806265 L0.349460563,1.16806265 L0.349460563,11.3468944 L11.4978477,11.3468944 L11.4978477,40.8821929 Z M42.5478475,21.0251278 C42.5478475,33.1507306 50.6304282,41.8277674 62.7264282,41.8277674 C74.8224282,41.8277674 82.9050088,33.1507306 82.9050088,21.0251278 C82.9050088,8.89952498 74.8224282,0.222488125 62.7264282,0.222488125 C50.6304282,0.222488125 42.5478475,8.89952498 42.5478475,21.0251278 L42.5478475,21.0251278 Z M54.8110733,21.0251278 C54.8110733,12.1812248 59.6048798,10.1232097 62.7264282,10.1232097 C65.8479765,10.1232097 70.641783,12.1812248 70.641783,21.0251278 C70.641783,29.8690307 65.8479765,31.9270459 62.7264282,31.9270459 C59.6048798,31.9270459 54.8110733,29.8690307 54.8110733,21.0251278 L54.8110733,21.0251278 Z M101.691783,40.8821929 L113.955009,40.8821929 L113.955009,11.3468944 L125.103396,11.3468944 L125.103396,1.16806265 L90.5433957,1.16806265 L90.5433957,11.3468944 L101.691783,11.3468944 L101.691783,40.8821929 Z M143.221267,40.8821929 L155.484492,40.8821929 L155.484492,11.3468944 L166.632879,11.3468944 L166.632879,1.16806265 L132.072879,1.16806265 L132.072879,11.3468944 L143.221267,11.3468944 L143.221267,40.8821929 Z M175.441847,40.8821929 L208.998492,40.8821929 L208.998492,30.7033612 L187.705073,30.7033612 L187.705073,25.7530004 L206.490105,25.7530004 L206.490105,16.2972551 L187.705073,16.2972551 L187.705073,11.3468944 L208.385331,11.3468944 L208.385331,1.16806265 L175.441847,1.16806265 L175.441847,40.8821929 Z M219.033782,40.8821929 L230.628105,40.8821929 L230.628105,19.1896007 L230.739589,19.1896007 L242.947073,40.8821929 L254.875847,40.8821929 L254.875847,1.16806265 L243.281524,1.16806265 L243.281524,22.4156785 L243.17004,22.4156785 L231.575718,1.16806265 L219.033782,1.16806265 L219.033782,40.8821929 Z M265.58004,40.8821929 L277.843266,40.8821929 L277.843266,25.1411581 L289.326105,25.1411581 L289.326105,40.8821929 L301.589331,40.8821929 L301.589331,1.16806265 L289.326105,1.16806265 L289.326105,14.9623264 L277.843266,14.9623264 L277.843266,1.16806265 L265.58004,1.16806265 L265.58004,40.8821929 Z M325.337137,26.6985749 L329.18333,14.4617281 L329.294814,14.4617281 L332.862298,26.6985749 L325.337137,26.6985749 Z M308.558814,40.8821929 L320.877782,40.8821929 L322.661524,35.2087457 L335.314943,35.2087457 L336.987201,40.8821929 L349.696363,40.8821929 L335.20346,1.16806265 L323.218943,1.16806265 L308.558814,40.8821929 Z M356.665846,40.8821929 L368.260169,40.8821929 L368.260169,15.4073026 L368.371653,15.4073026 L375.283653,40.8821929 L384.42533,40.8821929 L391.33733,15.4073026 L391.448814,15.4073026 L391.448814,40.8821929 L403.043137,40.8821929 L403.043137,1.16806265 L385.595911,1.16806265 L379.910234,24.5293157 L379.79875,24.5293157 L374.113072,1.16806265 L356.665846,1.16806265 L356.665846,40.8821929 Z" id="TOTTENHAM"></path>
                    <path d="M1.14285714,51.3113237 L403.529954,51.3113237 L403.529954,119.100674 L1.14285714,119.100674 L1.14285714,51.3113237 Z M24.2583957,104.326072 L36.5216215,104.326072 L36.5216215,74.7907736 L47.6700086,74.7907736 L47.6700086,64.6119419 L13.1100086,64.6119419 L13.1100086,74.7907736 L24.2583957,74.7907736 L24.2583957,104.326072 Z M65.9725246,104.326072 L99.5291698,104.326072 L99.5291698,94.1472405 L78.2357505,94.1472405 L78.2357505,89.1968797 L97.0207827,89.1968797 L97.0207827,79.7411344 L78.2357505,79.7411344 L78.2357505,74.7907736 L98.9160085,74.7907736 L98.9160085,64.6119419 L65.9725246,64.6119419 L65.9725246,104.326072 Z M115.156073,104.326072 L129.203041,104.326072 L136.226525,92.4785795 L143.027041,104.326072 L157.798654,104.326072 L143.58446,83.3009444 L156.349363,64.6119419 L142.748331,64.6119419 L136.839686,75.402616 L130.819557,64.6119419 L116.438137,64.6119419 L129.537492,83.1897003 L115.156073,104.326072 Z M183.403363,104.326072 L195.666589,104.326072 L195.666589,74.7907736 L206.814976,74.7907736 L206.814976,64.6119419 L172.254976,64.6119419 L172.254976,74.7907736 L183.403363,74.7907736 L183.403363,104.326072 Z M225.117492,104.326072 L237.380718,104.326072 L237.380718,64.6119419 L225.117492,64.6119419 L225.117492,104.326072 Z M257.466976,104.326072 L287.344653,104.326072 L287.344653,94.1472405 L269.730202,94.1472405 L269.730202,64.6119419 L257.466976,64.6119419 L257.466976,104.326072 Z M306.371815,104.326072 L339.92846,104.326072 L339.92846,94.1472405 L318.63504,94.1472405 L318.63504,89.1968797 L337.420073,89.1968797 L337.420073,79.7411344 L318.63504,79.7411344 L318.63504,74.7907736 L339.315299,74.7907736 L339.315299,64.6119419 L306.371815,64.6119419 L306.371815,104.326072 Z M356.893169,90.9767847 C357.004653,103.658608 369.88104,105.271647 374.396137,105.271647 C383.259105,105.271647 392.790976,101.934325 392.790976,91.588627 C392.790976,84.3021409 387.216782,81.6879055 381.586847,80.1304886 C375.956911,78.5730717 370.271234,77.9612294 370.048266,75.1245058 C370.048266,72.8996246 372.779621,72.4546483 374.451879,72.4546483 C375.678202,72.4546483 377.07175,72.7327585 378.075105,73.4558449 C379.07846,74.1233092 379.747363,75.1245058 379.524395,76.6263006 L391.118718,76.6263006 C390.784266,66.9480672 383.147621,63.6663674 374.507621,63.6663674 C366.313557,63.6663674 358.453944,67.6155316 358.453944,76.7931667 C358.453944,84.8027392 365.644653,86.5270222 371.943492,88.3069272 C378.79975,90.2536983 380.52775,90.8099186 380.52775,92.8679337 C380.52775,95.8159014 377.461944,96.4833658 375.455234,96.4833658 C373.169815,96.4833658 370.494202,95.9827675 369.602331,93.5910201 C369.323621,92.8679337 369.156395,91.9779812 369.156395,90.9767847 L356.893169,90.9767847 Z" id="Combined-Shape"></path>
                </g>
            </g>
        </g>
    </g>
</svg>