<?xml version="1.0" encoding="UTF-8" standalone="no"?>
<svg width="183px" height="568px" viewBox="0 0 183 568" version="1.1" xmlns="http://www.w3.org/2000/svg" xmlns:xlink="http://www.w3.org/1999/xlink">
    <!-- Generator: Sketch 39.1 (31720) - http://www.bohemiancoding.com/sketch -->
    <title>Page 1</title>
    <desc>Created with Sketch.</desc>
    <defs>
        <polygon id="path-1" points="567.340586 181.572764 0 181.572764 0 0.138889798 567.340586 0.138889798 567.340586 181.572764"></polygon>
    </defs>
    <g id="Page-1" stroke="none" stroke-width="1" fill="none" fill-rule="evenodd">
        <g id="Desktop-Copy-6" transform="translate(-15.000000, -14.000000)">
            <g id="Page-1" transform="translate(106.789063, 298.000000) rotate(-90.000000) translate(-106.789063, -298.000000) translate(-177.210937, 206.500000)">
                <polygon id="Fill-1" fill="#FFFFFF" points="99.9388421 108.774698 104.470357 108.774698 102.142208 45.6317906"></polygon>
                <g id="Group-19" transform="translate(0.000000, 0.354287)">
                    <path d="M160.593802,51.8278733 C160.533097,52.7760123 160.500496,53.7972581 160.500496,54.906232 L160.593802,51.8278733 Z" id="Fill-2" fill="#FFFFFF"></path>
                    <path d="M388.22603,45.4872641 L388.22603,109.129547 C392.101032,108.229771 394.04584,104.813996 394.04584,98.861978 L394.04584,55.7548333 C394.04584,49.8050643 392.101032,46.3881649 388.22603,45.4872641" id="Fill-4" fill="#FFFFFF"></path>
                    <polygon id="Fill-6" fill="#FFFFFF" points="322.698034 108.629947 327.229549 108.629947 324.9014 45.4870392"></polygon>
                    <g id="Group-10">
                        <mask id="mask-2" fill="white">
                            <use xlink:href="#path-1"></use>
                        </mask>
                        <g id="Clip-9"></g>
                        <path d="M550.564651,165.729171 L534.34293,165.729171 L523.835347,165.729171 L519.727643,165.729171 L509.221184,98.1773609 L509.221184,165.729171 L486.761463,165.729171 L486.761463,16.7914946 L520.463972,16.7914946 L528.104931,66.7897989 L528.104931,16.7914946 L535.078135,16.7914946 L542.720218,16.7914946 L550.564651,16.7914946 L550.564651,165.729171 Z M457.35327,165.729171 L455.085827,136.170404 L446.593874,136.170404 L444.300574,165.729171 L418.388539,165.729171 L431.975214,16.7914946 L469.628043,16.7914946 L483.23945,165.729171 L457.35327,165.729171 Z M389.535684,137.77088 C389.101756,137.776504 388.6712,137.785502 388.22603,137.784377 L388.22603,165.83152 L385.977698,165.83152 L364.634274,165.83152 L362.384818,165.83152 L362.384818,16.8657261 L364.634274,16.8657261 L387.821331,16.8657261 L390.070787,16.8657261 C400.162429,16.8657261 407.654998,19.1725269 412.548495,23.7850038 C417.439743,28.3997301 419.887053,37.8113873 419.887053,52.017726 L419.887053,102.598635 C419.887053,115.608272 417.889409,124.810731 413.892998,130.208263 C410.03261,135.42134 401.903763,137.937339 389.535684,137.77088 L389.535684,137.77088 Z M331.446634,165.729171 L329.179191,136.170404 L320.687238,136.170404 L318.393938,165.729171 L292.481903,165.729171 L306.068578,16.7914946 L343.721407,16.7914946 L357.332814,165.729171 L331.446634,165.729171 Z M291.524113,130.799865 C291.524113,154.604565 282.379019,166.506352 264.088832,166.506352 C263.766196,166.506352 263.446933,166.492856 263.12767,166.479359 C262.701611,166.492856 262.276676,166.506352 261.840499,166.506352 C255.333824,166.506352 249.556733,163.647314 244.511474,157.925863 C239.465091,152.205537 236.941338,144.686784 236.941338,135.367354 L236.941338,108.612513 L239.190795,108.612513 L258.304996,108.612513 L260.554453,108.612513 L260.554453,133.983948 C260.554453,136.614668 261.314389,138.15441 262.810655,138.641414 C264.30692,138.15441 265.067981,136.614668 265.067981,133.983948 L265.067981,16.8657261 L267.316314,16.8657261 L289.274656,16.8657261 L291.524113,16.8657261 L291.524113,130.799865 Z M231.286781,164.94749 L229.038448,164.94749 L207.078982,164.94749 L204.830649,164.94749 L204.830649,45.236789 L193.554136,45.236789 L191.305803,45.236789 L191.305803,17.1075409 L193.554136,17.1075409 L242.563294,17.1075409 L244.811627,17.1075409 L244.811627,45.236789 L242.563294,45.236789 L231.286781,45.236789 L231.286781,164.94749 Z M192.545759,126.041175 C192.545759,152.429356 183.182577,165.622322 164.457337,165.622322 C164.065003,165.622322 163.682786,165.608826 163.299446,165.597579 C162.937464,165.607701 162.577731,165.622322 162.209004,165.622322 C144.149271,165.622322 135.121091,153.629433 135.121091,129.639154 L135.121091,109.129885 L137.369424,109.129885 L157.099668,109.129885 L159.348001,109.129885 L159.348001,129.91696 C159.348001,133.828737 160.493526,136.041061 162.777833,136.56743 C164.849671,136.072553 165.940113,134.069427 166.066019,130.583919 C165.935616,123.506056 163.292701,115.253985 158.099052,105.808586 C147.800564,87.8175647 141.396188,75.7324479 138.887048,69.5498619 C136.678061,64.1152147 135.443727,58.212684 135.177299,51.8478933 C135.144698,52.8927582 135.121091,53.9533692 135.121091,55.0443476 L135.121091,49.205926 C135.121091,50.0955795 135.141326,50.9751106 135.177299,51.8478933 C135.936112,28.243394 145.24983,16.4327089 163.134193,16.4327089 C163.511913,16.4327089 163.879516,16.4462056 164.249366,16.4574528 C164.624838,16.4473303 164.999185,16.4327089 165.382526,16.4327089 C182.107874,16.4327089 190.470547,28.1511669 190.470547,51.5847088 L190.470547,58.9111351 L188.222215,58.9111351 L168.493094,58.9111351 L166.244762,58.9111351 L166.244762,49.3701351 C166.244762,46.108447 165.399389,44.2087948 163.737871,43.629564 C162.847531,43.995098 162.144927,44.8566336 161.621065,46.1995493 C162.723873,51.9839844 165.220646,58.3802673 169.128248,65.3985203 C179.245746,82.8361797 185.678226,95.0146482 188.424565,101.933926 C191.172027,108.853203 192.545759,116.697001 192.545759,125.460819 L192.545759,126.041175 Z M108.687442,165.519973 L106.419999,135.961206 L97.9280457,135.961206 L95.6347463,165.519973 L69.7227109,165.519973 L83.3093859,16.5822967 L120.962215,16.5822967 L134.573622,165.519973 L108.687442,165.519973 Z M66.3142384,166.07221 L64.0659056,166.07221 L20.897916,166.07221 L18.6495832,166.07221 L18.6495832,15.9828209 L20.897916,15.9828209 L42.8562582,15.9828209 L45.104591,15.9828209 L45.104591,140.608549 L64.0659056,140.608549 L66.3142384,140.608549 L66.3142384,166.07221 Z M-0.000337249918,181.573102 L567.340586,181.573102 L567.340586,0.138889798 L-0.000337249918,0.138889798 L-0.000337249918,181.573102 Z" id="Fill-8" fill="#FFFFFF" mask="url(#mask-2)"></path>
                    </g>
                    <polygon id="Fill-11" fill="#FFFFFF" points="448.60467 108.629947 453.136185 108.629947 450.808036 45.4870392"></polygon>
                    <path d="M166.090526,129.91651 C166.090526,130.151577 166.073664,130.360775 166.065794,130.583469 C166.069167,130.765674 166.090526,130.954627 166.090526,131.134582 L166.090526,129.91651 Z" id="Fill-13" fill="#FFFFFF"></path>
                    <path d="M160.593802,51.8278733 C160.745564,49.4434668 161.088435,47.5685585 161.62129,46.1997742 C161.187362,43.9244656 160.962529,41.741384 160.962529,39.6572778 L160.593802,51.8278733 Z" id="Fill-15" fill="#FFFFFF"></path>
                    <path d="M135.121091,55.0447975 C135.121091,53.9526944 135.144698,52.8932081 135.177299,51.8472185 C135.141326,50.9755605 135.121091,50.0960294 135.121091,49.2063758 L135.121091,55.0447975 Z" id="Fill-17" fill="#FFFFFF"></path>
                </g>
            </g>
        </g>
    </g>
</svg>