<?xml version="1.0" encoding="UTF-8" standalone="no"?>
<svg width="163px" height="571px" viewBox="0 0 163 571" version="1.1" xmlns="http://www.w3.org/2000/svg" xmlns:xlink="http://www.w3.org/1999/xlink">
    <!-- Generator: Sketch 39.1 (31720) - http://www.bohemiancoding.com/sketch -->
    <title>Page 1</title>
    <desc>Created with Sketch.</desc>
    <defs></defs>
    <g id="Page-1" stroke="none" stroke-width="1" fill="none" fill-rule="evenodd">
        <g id="Desktop-Copy-7" transform="translate(-10.000000, -17.000000)" stroke="#FFFFFF">
            <g id="Page-1" transform="translate(91.500000, 302.500000) rotate(-90.000000) translate(-91.500000, -302.500000) translate(-193.000000, 222.000000)">
                <path d="M0,1.0218694 L0,159.313705 C0,159.877205 0.459133192,160.334974 1.0243129,160.334974 L50.0708245,160.334974 C50.6372093,160.334974 51.0951374,159.877205 51.0951374,159.313705 L51.0951374,134.154451 C51.0951374,133.58975 50.6372093,133.131981 50.0708245,133.131981 L28.3590063,133.131981 L28.3590063,1.0218694 C28.3590063,0.45716791 27.8998732,0.000600746268 27.3346934,0.000600746268 L1.0243129,0.000600746268 C0.459133192,0.000600746268 0,0.45716791 0,1.0218694" id="Fill-1"></path>
                <path d="M158.231518,33.7751567 L158.217057,44.8372985 C158.217057,45.402 158.67619,45.8597687 159.242575,45.8597687 L160.627205,45.8597687 L181.777459,45.8597687 L183.163294,45.8597687 C183.728474,45.8597687 184.187607,45.402 184.187607,44.8372985 L184.187607,38.0332463 C184.187607,12.9989478 175.223061,0.481798507 157.29397,0.481798507 C156.881835,0.481798507 156.481751,0.496216418 156.078051,0.508231343 C155.682786,0.495014925 155.287522,0.481798507 154.883822,0.481798507 C135.772554,0.481798507 125.784901,13.0085597 124.916042,38.0644851 L124.917247,38.4189254 C125.211285,45.1797239 126.535662,51.4479104 128.890376,57.2246866 C131.581307,63.8280896 138.446613,76.7393284 149.485091,95.958403 C155.195937,106.306858 158.051962,115.325261 158.051962,123.01241 L158.051962,121.711194 C158.051962,125.891187 156.864964,128.253321 154.500609,128.815619 C152.053104,128.253321 150.823928,125.891187 150.823928,121.711194 L150.823928,100.527679 C150.823928,99.9641791 150.366,99.5064104 149.799615,99.5064104 L148.41378,99.5064104 L127.264732,99.5064104 L125.878896,99.5064104 C125.312512,99.5064104 124.854584,99.9641791 124.854584,100.527679 L124.854584,121.415627 C124.854584,147.042261 134.532533,159.853776 153.890841,159.853776 C154.287311,159.853776 154.672934,159.839358 155.060968,159.827343 C155.471899,159.839358 155.881624,159.853776 156.300989,159.853776 C176.375112,159.853776 186.412173,145.760269 186.412173,117.572052 L186.412173,116.950881 C186.412173,107.588851 184.939573,99.2108433 181.994372,91.8192612 C179.049171,84.4264776 172.153738,71.4167164 161.308072,52.7887761 L157.193949,45.9426716 C157.193949,45.9426716 151.086634,37.9371269 151.086634,34.8336716 L151.086634,34.6702687 C150.919129,32.3802239 151.722913,28.6748209 154.637987,28.6748209 C157.396402,28.6748209 158.314668,31.5992537 158.314668,35.7792463" id="Fill-3"></path>
                <path d="M240.028928,1.20173284 L187.492522,1.20173284 L186.107892,1.20173284 C185.541507,1.20173284 185.082374,1.65950149 185.082374,2.22300149 L185.082374,30.228591 C185.082374,30.7932925 185.541507,31.2510612 186.107892,31.2510612 L187.492522,31.2510612 L199.581825,31.2510612 L199.581825,158.111852 C199.581825,158.676554 200.039753,159.133121 200.606137,159.133121 L201.991973,159.133121 L225.530683,159.133121 L226.915313,159.133121 C227.481698,159.133121 227.940831,158.676554 227.940831,158.111852 L227.940831,31.2510612 L240.028928,31.2510612 L241.414763,31.2510612 C241.979943,31.2510612 242.439076,30.7932925 242.439076,30.228591 L242.439076,2.22300149 C242.439076,1.65950149 241.979943,1.20173284 241.414763,1.20173284 L240.028928,1.20173284 Z" id="Fill-5"></path>
                <path d="M89.5020507,31.2949157 L91.9579915,97.6881918 C91.9796829,98.2673112 91.5157294,98.7479082 90.9348837,98.7479082 L88.2005708,98.7479082 C87.6209302,98.7479082 87.1569767,98.2685127 87.1762579,97.6905948 L89.5020507,31.2949157 Z M85.9326216,128.168856 L93.1389641,128.168856 C93.6740169,128.168856 94.1198943,128.579766 94.1608668,129.112028 L96.444482,158.800908 C96.4854545,159.333169 96.9313319,159.74408 97.4663848,159.74408 L123.144101,159.74408 C123.746638,159.74408 124.220233,159.22864 124.164799,158.630296 L109.76055,1.56878881 C109.712347,1.04253507 109.270085,0.640035075 108.741057,0.640035075 L70.2485835,0.640035075 C69.718351,0.640035075 69.2760888,1.04253507 69.2278858,1.56878881 L54.7489218,159.74408 L81.5774841,159.74408 C82.112537,159.74408 82.5572093,159.334371 82.5993869,158.80211 L84.9107188,129.110826 C84.9516913,128.578565 85.3963636,128.168856 85.9326216,128.168856 L85.9326216,128.168856 Z" id="Fill-7"></path>
                <path d="M288.89733,0.943772388 L265.358619,0.943772388 L263.972784,0.943772388 C263.407605,0.943772388 262.948471,1.40154104 262.948471,1.96504104 L262.948471,126.05519 C262.948471,128.866683 262.132636,130.511526 260.528683,131.031772 C258.924729,130.511526 258.110099,128.866683 258.110099,126.05519 L258.110099,99.9743918 C258.110099,99.4096903 257.650966,98.9531231 257.084581,98.9531231 L255.698746,98.9531231 L235.208873,98.9531231 L233.823038,98.9531231 C233.256653,98.9531231 232.79752,99.4096903 232.79752,99.9743918 L232.79752,127.534228 C232.79752,137.489795 235.501706,145.521772 240.912488,151.632563 C246.32086,157.743354 252.513736,160.797549 259.488704,160.797549 C259.955068,160.797549 260.411791,160.784332 260.868514,160.769914 C261.210755,160.784332 261.552996,160.797549 261.898852,160.797549 C281.505406,160.797549 291.307478,148.083354 291.307478,122.654966 L291.307478,1.96504104 C291.307478,1.40154104 290.84955,0.943772388 290.283165,0.943772388 L288.89733,0.943772388 Z" id="Fill-9"></path>
                <path d="M401.209142,42.4868187 L401.209142,88.5376246 C401.209142,94.8959231 399.124364,98.5436545 394.970474,99.50605 L394.970474,31.5183933 C399.124364,32.4807888 401.209142,36.1309231 401.209142,42.4868187 M421.042249,8.33559478 C415.797767,3.40827388 407.765949,0.944012687 396.946795,0.944012687 L394.536647,0.944012687 L369.679586,0.944012687 L368.293751,0.944012687 C367.728571,0.944012687 367.269438,1.40178134 367.269438,1.96528134 L367.269438,159.055625 C367.269438,159.620326 367.728571,160.078095 368.293751,160.078095 L369.679586,160.078095 L392.559121,160.078095 L393.944956,160.078095 C394.51134,160.078095 394.970474,159.620326 394.970474,159.055625 L394.970474,130.116475 C395.447683,130.117677 395.908021,130.108065 396.37318,130.102057 C409.632609,130.279878 418.346499,127.59214 422.484723,122.023222 C426.767556,116.257259 428.910178,106.426647 428.910178,92.5289828 L428.910178,38.4954604 C428.910178,23.3182067 426.286732,13.2653187 421.042249,8.33559478" id="Fill-11"></path>
                <path d="M560.58319,0.864233582 L552.392302,0.864233582 L545.941541,0.864233582 C545.375156,0.864233582 544.916023,1.32200224 544.916023,1.88550224 L544.916023,54.2753828 L536.857693,1.73171119 C536.781774,1.23309179 536.351562,0.864233582 535.845431,0.864233582 L501.62133,0.864233582 C501.05615,0.864233582 500.597017,1.32200224 500.597017,1.88550224 L500.597017,158.94701 C500.597017,159.51051 501.05615,159.968278 501.62133,159.968278 L523.647672,159.968278 C524.214057,159.968278 524.67319,159.51051 524.67319,158.94701 L524.67319,87.8066366 L535.800844,159.103204 C535.879173,159.601823 536.30818,159.968278 536.813106,159.968278 L540.340357,159.968278 L551.602979,159.968278 L567.967884,159.968278 C568.533063,159.968278 568.992197,159.51051 568.992197,158.94701 L568.992197,1.88550224 C568.992197,1.32200224 568.533063,0.864233582 567.967884,0.864233582 L560.58319,0.864233582 Z" id="Fill-13"></path>
                <path d="M328.106822,31.2949157 L330.562763,97.6881918 C330.584455,98.2673112 330.120501,98.7479082 329.539655,98.7479082 L326.805342,98.7479082 C326.225702,98.7479082 325.761748,98.2685127 325.78103,97.6905948 L328.106822,31.2949157 Z M324.537393,128.168856 L331.743736,128.168856 C332.278789,128.168856 332.724666,128.579766 332.765638,129.112028 L335.049254,158.800908 C335.090226,159.333169 335.536104,159.74408 336.071156,159.74408 L361.748873,159.74408 C362.35141,159.74408 362.825004,159.22864 362.769571,158.630296 L348.365321,1.56878881 C348.317118,1.04253507 347.874856,0.640035075 347.345829,0.640035075 L308.853355,0.640035075 C308.323123,0.640035075 307.88086,1.04253507 307.832658,1.56878881 L293.353693,159.74408 L320.182256,159.74408 C320.717309,159.74408 321.161981,159.334371 321.204159,158.80211 L323.51549,129.110826 C323.556463,128.578565 324.001135,128.168856 324.537393,128.168856 L324.537393,128.168856 Z" id="Fill-15"></path>
                <path d="M461.267378,31.2949157 L463.723319,97.6881918 C463.745011,98.2673112 463.281057,98.7479082 462.700211,98.7479082 L459.965899,98.7479082 C459.386258,98.7479082 458.922304,98.2685127 458.941586,97.6905948 L461.267378,31.2949157 Z M457.697949,128.168856 L464.904292,128.168856 C465.439345,128.168856 465.885222,128.579766 465.926195,129.112028 L468.20981,158.800908 C468.250782,159.333169 468.69666,159.74408 469.231712,159.74408 L494.909429,159.74408 C495.511966,159.74408 495.98556,159.22864 495.930127,158.630296 L481.525877,1.56878881 C481.477674,1.04253507 481.035412,0.640035075 480.506385,0.640035075 L442.013911,0.640035075 C441.483679,0.640035075 441.041416,1.04253507 440.993214,1.56878881 L426.514249,159.74408 L453.342812,159.74408 C453.877865,159.74408 454.322537,159.334371 454.364715,158.80211 L456.676047,129.110826 C456.717019,128.578565 457.161691,128.168856 457.697949,128.168856 L457.697949,128.168856 Z" id="Fill-17"></path>
            </g>
        </g>
    </g>
</svg>